<svg width="2101" height="374" viewBox="0 0 2101 374" fill="none" xmlns="http://www.w3.org/2000/svg">
<path d="M107.945 151.84L104.81 139.747C105.706 139.747 114.664 151.84 116.903 153.632C118.695 155.065 119.143 156.319 119.143 156.767C117.202 159.156 112.693 165.098 110.185 169.756C107.05 175.579 110.185 179.162 114.216 180.506C117.441 181.581 124.219 178.266 127.205 176.475C136.522 170.383 155.871 163.486 164.381 160.798L210.516 141.538C219.325 149.302 238.017 165.725 242.317 169.308C247.692 173.787 247.244 174.235 248.588 177.819C249.663 180.685 254.112 195.735 256.202 202.901C258.352 204.693 263.369 211.71 265.608 214.995C264.175 213.561 257.247 209.321 253.963 207.38C254.679 208.455 254.56 209.918 254.41 210.516C258.71 214.099 260.681 217.682 261.129 219.026C253.515 214.547 245.452 211.411 245.004 213.203C244.557 214.995 243.213 215.443 242.317 215.891C241.421 216.338 238.734 215.891 237.39 215.891C236.046 215.891 233.359 215.443 232.463 215.443C231.567 215.443 227.536 218.13 224.401 219.026C221.893 219.743 220.967 217.831 220.818 216.786V211.411H218.13V209.172C218.578 202.901 232.463 190.36 233.359 189.464C234.255 188.568 232.015 187.225 230.671 189.016C229.596 190.449 223.654 195.884 220.818 198.422H211.859C211.859 197.228 212.039 194.57 212.755 193.495C213.472 192.42 212.457 186.179 211.859 183.193C211.859 188.927 209.769 194.839 208.724 197.078V201.558C209.769 203.051 212.128 206.664 213.203 209.172C214.547 212.307 211.859 219.026 209.172 221.265C206.485 223.505 191.704 226.64 190.36 226.192C189.285 225.834 187.523 221.863 186.777 219.922H183.193L178.714 214.099L186.777 213.203C188.867 215.293 193.227 219.563 193.943 219.922C194.66 220.28 199.019 214.995 201.11 212.307C198.721 210.665 193.495 207.112 191.704 206.037C189.912 204.962 187.075 201.11 185.881 199.318V203.797H153.184V191.704C152.288 192.152 150.496 201.558 150.496 204.693C150.496 207.828 140.195 213.203 138.851 214.099C137.507 214.995 126.757 216.786 123.622 218.13C120.487 219.474 114.664 227.984 116.456 230.223C117.889 232.015 118.844 236.046 119.143 237.838H110.185C109.886 235.897 109.468 231.209 110.185 227.984C111.081 223.953 111.976 219.026 113.32 215.443C114.395 212.576 119.442 207.082 121.83 204.693V198.422C121.83 194.839 123.622 188.867 124.518 186.329C110.633 188.12 107.945 182.745 106.154 180.058C104.362 177.371 103.018 175.131 106.154 168.413C108.662 163.038 112.872 157.812 114.664 155.871L107.945 151.84Z" fill="black"/>
<path fill-rule="evenodd" clip-rule="evenodd" d="M186.777 373.553C289.931 373.553 373.553 289.931 373.553 186.777C373.553 83.6227 289.931 0 186.777 0C83.6227 0 0 83.6227 0 186.777C0 289.931 83.6227 373.553 186.777 373.553ZM186.777 354.741C279.541 354.741 354.741 279.541 354.741 186.777C354.741 94.0123 279.541 18.812 186.777 18.812C94.0125 18.812 18.8121 94.0123 18.8121 186.777C18.8121 279.541 94.0125 354.741 186.777 354.741Z" fill="black"/>
<path d="M2100.73 140.736V228.737H2078.35V181.342L2056.98 216.668H2054.72L2033.47 181.468V228.737H2010.97V140.736H2033.47L2055.85 178.325L2078.35 140.736H2100.73Z" fill="black"/>
<path d="M1970.98 228.737L1955.65 200.325H1947.6V228.737H1925.1V140.736H1960.3C1978.15 140.736 1991.98 153.434 1991.98 171.159C1991.98 181.971 1986.07 191.148 1977.02 196.177L1995.12 228.737H1970.98ZM1947.6 161.479V181.217H1960.05C1965.58 181.342 1969.48 177.32 1969.48 171.411C1969.48 165.628 1965.58 161.479 1960.05 161.479H1947.6Z" fill="black"/>
<path d="M1883.89 140.736H1906.39V228.737H1883.89V140.736Z" fill="black"/>
<path d="M1866.28 162.485H1834.73V176.817H1865.66V198.565H1834.73V228.737H1812.23V140.736H1866.28V162.485Z" fill="black"/>
<path d="M1662.18 228.737L1637.54 140.736H1661.81L1675.38 196.177L1691.1 140.736H1708.82L1724.54 196.177L1738.24 140.736H1762.38L1737.86 228.737H1714.1L1700.02 179.08L1685.94 228.737H1662.18Z" fill="black"/>
<path d="M1612.77 228.737L1609 216.04H1579.71L1575.93 228.737H1551.54L1580.59 140.736H1607.99L1637.03 228.737H1612.77ZM1585.49 196.68H1603.21L1594.29 166.759L1585.49 196.68Z" fill="black"/>
<path d="M1512.24 206.988H1542.53V228.737H1489.73V140.736H1512.24V206.988Z" fill="black"/>
<path d="M1441.68 140.736L1412.01 194.92V228.737H1389.51V195.171L1359.84 140.736H1385.11L1400.7 173.297L1416.41 140.736H1441.68Z" fill="black"/>
<path d="M1341.34 228.737L1337.57 216.04H1308.27L1304.5 228.737H1280.11L1309.15 140.736H1336.56L1365.6 228.737H1341.34ZM1314.06 196.68H1331.78L1322.86 166.759L1314.06 196.68Z" fill="black"/>
<path d="M1180.24 228.737L1155.6 140.736H1179.86L1193.44 196.177L1209.15 140.736H1226.88L1242.59 196.177L1256.29 140.736H1280.43L1255.92 228.737H1232.16L1218.08 179.08L1204 228.737H1180.24Z" fill="black"/>
<path d="M1107.22 140.736C1131.48 140.736 1149.96 159.845 1149.96 184.737C1149.96 209.628 1131.48 228.737 1107.22 228.737H1071.39V140.736H1107.22ZM1107.22 206.988C1119.29 206.988 1127.96 198.188 1127.96 184.737C1127.96 171.285 1119.29 162.485 1107.22 162.485H1094.52V206.988H1107.22Z" fill="black"/>
<path d="M1032.28 228.737L1028.51 216.04H999.22L995.448 228.737H971.059L1000.1 140.736H1027.51L1056.55 228.737H1032.28ZM1005 196.68H1022.73L1013.8 166.759L1005 196.68Z" fill="black"/>
<path d="M919.554 230.623C893.908 230.623 873.416 210.634 873.416 184.737C873.416 158.839 893.908 138.851 919.554 138.851C945.199 138.851 965.691 158.839 965.691 184.737C965.691 210.634 945.199 230.623 919.554 230.623ZM919.554 208.623C933.005 208.623 943.314 198.817 943.314 184.737C943.314 170.657 933.005 160.851 919.554 160.851C906.102 160.851 895.793 170.657 895.793 184.737C895.793 198.817 906.102 208.623 919.554 208.623Z" fill="black"/>
<path d="M839.575 228.737L824.238 200.325H816.192V228.737H793.689V140.736H828.889C846.741 140.736 860.569 153.434 860.569 171.159C860.569 181.971 854.661 191.148 845.609 196.177L863.712 228.737H839.575ZM816.192 161.479V181.217H828.638C834.169 181.342 838.066 177.32 838.066 171.411C838.066 165.628 834.169 161.479 828.638 161.479H816.192Z" fill="black"/>
<path d="M767.736 183.228C774.525 187.251 778.799 194.04 778.799 202.965C778.799 218.554 767.107 228.737 749.256 228.737H712.17V140.736H746.867C764.342 140.736 775.908 150.165 775.908 165.754C775.908 173.297 772.89 179.205 767.736 183.228ZM746.239 160.851H734.673V174.68H746.239C750.136 174.68 753.405 172.291 753.405 167.765C753.405 163.491 750.262 160.851 746.239 160.851ZM748.627 208.623C753.153 208.623 756.296 205.48 756.296 201.205C756.296 196.68 753.153 193.788 748.627 193.788H734.673V208.623H748.627Z" fill="black"/>
<path d="M628.071 207.617H662.14V228.737H605.568V140.736H661.512V161.731H628.071V173.925H658.369V194.668H628.071V207.617Z" fill="black"/>
<path d="M563.256 140.736H585.634V228.737H563.256V194.92H538.49V228.737H515.987V140.736H538.49V173.297H563.256V140.736Z" fill="black"/>
<path d="M500.93 140.736V162.485H479.181V228.737H456.678V162.485H434.93V140.736H500.93Z" fill="black"/>
</svg>
