<?xml version="1.0" encoding="utf-8"?>
<!-- Generator: Adobe Illustrator 26.0.1, SVG Export Plug-In . SVG Version: 6.00 Build 0)  -->
<svg version="1.1" id="Layer_1" xmlns="http://www.w3.org/2000/svg" xmlns:xlink="http://www.w3.org/1999/xlink" x="0px" y="0px"
	 viewBox="0 0 250 60" style="enable-background:new 0 0 250 60;" xml:space="preserve">
	<g>
		<path fill="#2563EB" d="M22.13,14.36L9.59,2.18h5.81c3.71,0,6.72,3.01,6.72,6.72v5.46H22.13z"/>
		<path fill="#2563EB" d="M1.42,32.02L13.95,44.2H8.13c-3.71,0-6.72-3.01-6.72-6.72C1.42,37.49,1.42,32.02,1.42,32.02z"/>
		<polygon points="8.11,2.77 8.11,23.39 8.11,23.56 8.11,36.76 15.79,44.2 15.79,23.56 15.79,23.39 15.79,10.2 	"/>
		<path d="M23.08,14.19h6.74v3.62c1.96-2.56,4.97-4.22,8.8-4.22c7.39,0,11.66,4.57,11.66,12.56V43.6h-6.88V26.86
			c0-4.57-2.21-7.39-6.63-7.39c-3.88,0-6.88,2.82-6.88,7.99V43.6h-6.79V14.19H23.08z"/>
		<path d="M52.36,14.19h5.03V9.71l6.84-4.67v9.15h5.98v6.08h-5.98v11.01c0,5.13,0.76,5.93,5.98,5.93v6.38h-0.95
			c-9.1,0-11.87-2.91-11.87-12.26V20.26h-5.03V14.19z"/>
		<path d="M70.51,28.97c0-8.59,6.68-15.38,15.28-15.38c8.75,0,15.13,6.44,15.13,15.13v2.56H76.98c0.95,4.18,4.22,6.93,9.05,6.93
			c3.81,0,6.74-2.01,8.15-5.17l5.58,3.21c-2.56,4.78-7.09,7.94-13.72,7.94C76.79,44.2,70.51,37.46,70.51,28.97z M77.34,25.6h16.69
			c-1.01-3.97-4.02-6.03-8.24-6.03C81.71,19.57,78.55,21.99,77.34,25.6z"/>
		<path d="M126.05,39.68c-2.17,2.82-5.63,4.52-9.6,4.52c-7.09,0-14.48-5.63-14.48-15.28c0-9.75,7.14-15.33,14.57-15.33
			c3.88,0,7.29,1.71,9.45,4.37v-3.77h6.79v28.65c0,8.24-5.28,14.98-15.18,14.98c-7.64,0-12.42-3.57-15.08-8.45l6.03-3.67
			c2.17,3.97,4.48,5.88,9.15,5.88c5.13,0,8.34-4.02,8.34-8.5v-3.42H126.05z M126.35,28.82c0-5.03-3.72-9.05-8.8-9.05
			c-5.03,0-8.89,3.97-8.89,9.05c0,5.13,3.88,9.15,8.89,9.15C122.63,37.97,126.35,33.9,126.35,28.82z"/>
		<path d="M136,14.19h6.74v4.37c1.36-2.91,3.88-4.37,7.53-4.37c2.17,0,3.81,0.51,5.17,1.25l-2.56,6.44
			c-1.01-0.65-2.11-1.16-4.07-1.16c-3.97,0-6.03,2.11-6.03,7.18V43.6H136V14.19z"/>
		<path d="M154.69,28.92c0-9.75,7.14-15.33,14.57-15.33c3.88,0,7.29,1.55,9.45,4.12v-3.51h6.79V43.6h-6.79v-3.81
			c-2.17,2.77-5.68,4.43-9.56,4.43C162.08,44.2,154.69,38.57,154.69,28.92z M179.07,28.82c0-5.03-3.72-9.05-8.8-9.05
			c-5.03,0-8.89,3.97-8.89,9.05c0,5.13,3.88,9.15,8.89,9.15C175.35,37.97,179.07,33.9,179.07,28.82z"/>
		<path d="M188.63,14.19h6.74v3.62c1.96-2.56,4.97-4.22,8.8-4.22c7.39,0,11.66,4.57,11.66,12.56V43.6h-6.88V26.86
			c0-4.57-2.21-7.39-6.63-7.39c-3.88,0-6.88,2.82-6.88,7.99V43.6h-6.79V14.19H188.63z"/>
		<path d="M217.77,28.92c0-9.75,7.14-15.33,14.57-15.33c3.81,0,7.23,1.5,9.4,4.07V6.39h6.84V43.6h-6.79v-3.81
			c-2.17,2.77-5.68,4.43-9.56,4.43C225.16,44.2,217.77,38.57,217.77,28.92z M242.15,28.82c0-5.03-3.72-9.05-8.8-9.05
			c-5.03,0-8.89,3.97-8.89,9.05c0,5.13,3.88,9.15,8.89,9.15C238.42,37.97,242.15,33.9,242.15,28.82z"/>
	</g>
</svg>
