<svg width="1084" height="374" viewBox="0 0 1084 374" fill="none" xmlns="http://www.w3.org/2000/svg">
<path d="M846.875 211.096C846.467 210.616 846.059 209.705 845.628 209.705C843.013 209.705 840.421 209.705 837.806 209.897C834.472 216.517 831.233 223.186 827.802 229.759C826.624 232.176 824.968 234.329 822.936 236.089C820.903 237.849 818.535 239.18 815.975 240.002C810.697 241.585 805.107 242.209 799.661 243.264H773.271C770.632 242.113 770.488 239.834 770.488 237.387C770.488 193.825 770.488 150.246 770.488 106.652C770.488 102.022 772.048 99.695 776.51 98.4955C780.972 97.2961 784.979 96.7444 789.297 95.9528V88.1806H719.724C718.884 96.2886 718.884 96.2886 726.705 96.9363C727.041 96.9363 727.401 96.9363 727.737 97.0563C732.535 98.1357 737.453 99.1912 739.252 104.804C739.252 106.076 739.132 107.347 739.132 108.643V228.895C739.132 231.294 739.132 233.693 739.252 236.26C735.342 244.296 727.113 242.185 720.372 244.128V252.572H839.438C839.503 248.663 839.808 244.761 840.35 240.889C842.341 230.934 844.668 221.075 846.875 211.096ZM956.465 174.706C955.889 177.105 955.289 179.504 954.57 182.43H958.456C961.215 182.91 963.974 183.342 966.709 183.894C972.875 185.165 975.73 188.115 975.897 194.376C976.113 202.436 976.233 210.52 975.658 218.556C975.323 224.023 974.2 229.412 972.323 234.557C970.871 237.977 968.344 240.832 965.126 242.689C956.681 247.486 947.276 247.894 937.896 246.287C934.24 245.548 930.735 244.193 927.532 242.281C914.313 234.725 907.74 221.963 903.013 208.409C895.12 185.813 893.993 162.472 897.376 138.844C898.531 128.475 901.946 118.485 907.38 109.578C913.881 99.5031 922.926 93.554 935.137 93.1702C942.893 92.7772 950.625 94.2981 957.654 97.5987C964.683 100.899 970.792 105.878 975.442 112.097C980.024 117.902 983.239 124.787 987.197 131.119C987.845 132.151 989.02 133.518 990.004 133.518C994.586 133.806 999.169 133.518 1002.84 133.518L989.908 88.0607C979.952 90.4595 969.66 87.9167 959.248 85.6619C947.155 82.6295 934.513 82.5308 922.374 85.374C896.944 91.9708 878.879 107.491 869.426 132.151C864.39 144.645 861.922 158.026 862.169 171.494C862.417 184.963 865.374 198.244 870.866 210.544C874.577 219.609 880.066 227.838 887.008 234.747C893.951 241.656 902.208 247.105 911.29 250.773C929.091 258.161 947.396 257.609 965.725 253.555C980.624 250.245 995.426 247.006 1010.83 248.566C1011.73 248.532 1012.62 248.395 1013.49 248.158C1013.63 245.727 1013.33 243.292 1012.63 240.961C1011.98 239.738 1009.08 239.81 1007.33 238.994C1006.91 238.757 1006.56 238.428 1006.29 238.033C1006.03 237.638 1005.85 237.187 1005.79 236.716C1005.62 222.61 1005.33 208.481 1005.62 194.376C1005.77 188.139 1008.88 185.309 1015 183.798L1020.14 182.55V174.778L956.465 174.706ZM594.204 252.5C596.447 252.684 598.702 252.684 600.945 252.5C602.429 252.267 603.773 251.489 604.712 250.317C605.478 248.778 606.771 247.564 608.355 246.895C609.939 246.226 611.711 246.146 613.349 246.671C617.636 247.792 621.864 249.129 626.016 250.677C647.607 258.665 668.288 258.545 688.008 245.519C696.001 240.085 702.012 232.201 705.136 223.055C708.26 213.909 708.328 203.996 705.329 194.808C700.531 181.303 690.935 171.923 678.748 165.255C666.56 158.586 653.293 152.445 640.722 145.752C635.008 143.058 630.059 138.976 626.328 133.878C620.69 125.41 619.37 116.391 623.473 107.275C628.799 95.4251 640.914 91.1312 654.661 93.8178C666.992 96.2167 675.269 104.205 680.883 115.143C684.097 121.428 686.784 122.844 694.03 121.884C693.454 109.89 692.902 97.8958 692.302 85.7098C688.392 85.9257 684.529 84.0786 681.77 88.3485C681.255 88.797 680.652 89.1331 679.999 89.3355C679.346 89.5379 678.659 89.6021 677.98 89.524C675.639 89.4546 673.321 89.0507 671.094 88.3245C659.915 84.3888 647.996 83.0036 636.212 84.2705C618.171 86.0936 600.226 97.3681 595.691 116.631C592.189 131.767 594.684 145.704 605.288 157.531C613.229 166.478 623.425 172.427 634.077 177.801C643.361 182.478 652.526 187.396 661.474 192.625C668.735 196.727 674.132 203.473 676.54 211.456C678.585 218.118 677.937 225.315 674.734 231.504C671.532 237.693 666.03 242.38 659.411 244.56C648.384 247.825 636.512 246.582 626.4 241.105C617.101 236.459 609.811 228.589 605.887 218.964C604.879 216.83 603.081 215.17 600.873 214.335C597.969 213.865 595.014 213.801 592.093 214.143C592.717 227.096 593.46 239.618 594.204 252.572V252.5ZM528.901 97.0563C536.434 97.0563 543.295 97.0563 550.229 97.0563C552.569 97.0125 554.899 97.3778 557.114 98.1357C561.481 99.9108 562.632 103.917 562.8 108.163C562.968 112.409 562.8 116.727 562.8 121.308C564.407 121.308 566.015 121.308 567.598 121.548C570.525 121.908 571.869 120.757 572.612 117.782C575.011 107.923 577.746 98.1357 580.337 88.3006C580.514 87.2771 580.626 86.2436 580.673 85.2061C576.739 85.5179 573.164 85.7578 569.565 86.0936C564.455 86.5494 559.345 87.437 554.235 87.485C532.644 87.7009 511.052 87.8208 489.268 87.6529C481.591 87.6529 473.89 86.7413 466.189 86.2136C462.95 85.9977 459.688 85.7818 456.449 85.446C454.218 85.2061 453.426 86.2616 452.946 88.2766C451.747 93.2661 450.307 98.2077 449.012 103.173C447.452 109.122 445.965 115.047 444.381 121.212C445.749 121.332 446.661 121.38 447.572 121.524C451.675 122.244 454.05 120.733 455.873 116.727C458.094 111.843 460.906 107.251 464.246 103.053C466.247 100.361 469.151 98.4789 472.427 97.7519C480.608 97.0323 488.884 97.512 497.521 97.512V230.599C497.521 231.774 497.521 232.997 497.521 234.101C497.209 238.898 495.626 241.129 490.948 242.353C486.821 243.408 482.551 243.936 478.256 244.752V252.572H548.094V244.416C545.294 244.309 542.504 244.013 539.745 243.528C532.668 241.873 528.685 240.913 528.757 231.318C529.069 188.451 528.901 145.56 528.901 102.669V97.0563Z" fill="black"/>
<path d="M202.386 363.421V364.069H158.075V363.325L202.386 363.421Z" fill="black"/>
<path d="M195.837 363.421H151.598C142.313 360.351 136.196 353.586 130.774 345.91C121.665 333.306 116.52 318.273 115.995 302.731C115.276 281.358 123.673 263.678 139.986 249.741C151.622 239.738 165.177 233.405 179.571 228.512C199.148 221.843 218.692 215.062 238.205 208.17C240.264 207.183 242.238 206.028 244.106 204.715C243.236 204.469 242.344 204.309 241.443 204.236C232.375 205.075 223.21 205.411 214.262 206.946C202.266 208.985 190.727 212.008 178.923 214.454C175.038 215.255 171.102 215.792 167.144 216.062C148.503 217.309 130.558 221.123 113.98 230.095C105.616 234.36 98.3231 240.458 92.6446 247.934C86.9661 255.411 83.0488 264.072 81.1848 273.274C76.8665 292.656 79.4575 311.655 84.2077 330.437C84.8794 333.1 85.5991 335.763 86.4868 339.121C85.7006 338.828 84.9452 338.459 84.2317 338.018C70.8928 325.568 58.8494 312.062 51.8201 294.959C45.6305 279.894 45.4386 264.278 48.5334 248.47C50.9924 235.127 57.5799 222.893 67.3661 213.495C75.5692 205.594 85.5867 199.828 96.539 196.703C116.403 190.946 136.316 185.213 156.516 180.895C170.718 177.872 185.497 177.465 199.939 175.306C208.36 173.963 216.686 172.08 224.866 169.669C236.669 166.334 248.449 162.808 259.988 158.682C281.58 150.934 301.636 140.187 318.43 124.139C319.102 123.491 319.845 122.628 320.661 122.484C328.506 121.212 330.593 114.736 333.28 108.786C335.439 103.989 337.527 99.1912 339.638 94.3936C339.945 93.4253 340.416 92.5167 341.029 91.7069C349.283 102.885 355.959 115.146 360.87 128.145C364.829 138.742 367.981 149.624 370.298 160.697C372.773 173.627 373.299 186.856 371.857 199.942C368.431 232.085 356.258 262.675 336.663 288.386C321.594 308.583 302.668 325.591 280.98 338.426C266.937 347.12 251.634 353.594 235.614 357.616C222.659 360.663 209.152 361.574 195.837 363.421Z" fill="black"/>
<path d="M15.1862 211.984V185.837C16.6679 164.94 21.944 144.488 30.7562 125.482C41.06 103.125 55.6782 83.0218 73.7717 66.3274C93.8678 47.4218 117.944 33.2578 144.233 24.8758C165.928 18.0575 188.76 15.6115 211.407 17.6793C219.269 18.2775 226.83 20.9603 233.31 25.4515C238.756 29.2416 244.922 32.0003 250.368 35.7904C253.219 37.6598 255.647 40.1043 257.498 42.967C259.349 45.8297 260.581 49.0476 261.116 52.4142C262.411 61.002 258.261 67.6227 252.287 73.116C242.666 81.529 231.291 87.6915 218.988 91.1552C207.684 94.9944 196.175 98.1979 184.513 100.75C171.511 103.685 158.776 107.697 146.44 112.745C142.484 114.48 138.624 116.426 134.876 118.574L131.47 120.277L132.741 122.412C136.1 122.1 139.938 122.604 142.769 121.308C159.731 113.752 177.604 112.001 195.885 111.713C221.724 111.539 247.154 105.242 270.088 93.3381C279.814 88.6688 287.293 80.3365 290.888 70.1655C292.453 65.3548 292.562 60.1889 291.2 55.3168C290.744 53.5417 290.265 51.7905 289.737 49.8955C290.231 49.6457 290.755 49.4602 291.296 49.3437C300.077 49.7036 311.808 59.1549 313.512 67.6707C314.548 74.1309 313.109 80.7444 309.481 86.1896C304.484 94.3544 298.87 102.125 292.688 109.434C286.618 116.631 277.765 119.149 268.697 120.637C266.177 121.142 263.614 121.4 261.044 121.404C249.552 121.116 238.66 123.995 227.625 126.658C218.796 128.793 209.704 129.92 200.683 131.239C179.451 134.334 158.339 137.38 137.731 143.665C121.537 148.631 105.152 153.261 89.4857 159.569C72.8589 166.266 58.5619 177.693 48.3654 192.433C42.8833 199.818 37.7981 207.489 33.1313 215.414C28.6332 223.516 26.0637 232.545 25.6222 241.801C25.5435 242.795 25.2133 243.753 24.6625 244.584C18.806 234.689 15.5462 223.475 15.1862 211.984Z" fill="black"/>
<path d="M594.204 252.572C593.46 239.618 592.717 227.096 591.973 214.191C594.895 213.849 597.85 213.913 600.753 214.383C602.961 215.218 604.759 216.878 605.768 219.012C609.691 228.637 616.981 236.507 626.28 241.153C636.382 246.654 648.255 247.923 659.291 244.68C665.96 242.526 671.511 237.83 674.74 231.61C677.969 225.391 678.616 218.149 676.54 211.456C674.086 203.44 668.616 196.689 661.282 192.625C652.334 187.396 643.169 182.478 633.885 177.801C623.281 172.427 613.085 166.478 605.096 157.531C594.564 145.704 592.069 131.767 595.499 116.631C599.986 97.4401 617.979 86.0936 636.02 84.2705C647.804 83.0036 659.723 84.3888 670.903 88.3245C673.129 89.0507 675.447 89.4546 677.788 89.524C678.467 89.6021 679.154 89.5379 679.807 89.3355C680.46 89.1331 681.063 88.797 681.578 88.3485C684.337 84.0786 688.2 85.9497 692.11 85.7098C692.71 97.9918 693.262 109.962 693.838 121.884C686.64 122.844 683.906 121.428 680.691 115.143C675.077 104.205 666.8 96.2407 654.469 93.8178C640.794 91.1312 628.679 95.4251 623.281 107.275C619.178 116.391 620.498 125.41 626.136 133.878C629.867 138.976 634.816 143.058 640.53 145.752C653.101 152.445 666.056 158.442 678.556 165.255C691.055 172.067 700.531 181.303 705.329 194.808C708.327 203.988 708.263 213.892 705.149 223.033C702.034 232.173 696.035 240.056 688.056 245.495C668.335 258.521 647.559 258.641 626.064 250.653C621.912 249.105 617.684 247.768 613.397 246.647C611.759 246.123 609.987 246.202 608.403 246.871C606.819 247.54 605.526 248.754 604.76 250.293C603.821 251.465 602.477 252.243 600.993 252.476C598.737 252.694 596.466 252.726 594.204 252.572Z" fill="black"/>
<path d="M846.875 211.096L837.806 209.897C840.421 209.897 843.013 209.657 845.628 209.705C846.011 209.777 846.419 210.688 846.875 211.096Z" fill="black"/>
<path d="M417.44 287.331C417.906 287.346 418.356 287.507 418.726 287.791C419.096 288.075 419.368 288.467 419.503 288.914V289.801C419.45 290.337 419.242 290.846 418.903 291.265C418.488 291.703 417.922 291.969 417.32 292.008H414.921V308.368C414.919 308.877 414.755 309.372 414.453 309.782C414.151 310.191 413.727 310.495 413.241 310.647C413.068 310.69 412.887 310.69 412.714 310.647H412.45C411.954 310.647 411.474 310.481 411.083 310.177C410.692 309.873 410.413 309.448 410.291 308.968V291.912H407.891C407.437 291.879 407.002 291.716 406.637 291.445C406.271 291.173 405.991 290.802 405.828 290.377L405.708 289.562C405.717 289.067 405.878 288.587 406.17 288.188C406.462 287.788 406.871 287.489 407.34 287.331H417.44Z" fill="black"/>
<path d="M431.594 287.331H431.834C432.34 287.328 432.832 287.498 433.228 287.812C433.625 288.126 433.903 288.565 434.017 289.058C434.061 289.4 434.061 289.747 434.017 290.089V296.686H444.142V289.49C444.161 288.909 444.392 288.354 444.789 287.93C445.218 287.504 445.792 287.256 446.397 287.235H446.637C447.104 287.24 447.559 287.391 447.937 287.666C448.315 287.941 448.599 288.327 448.748 288.77C448.83 289.107 448.871 289.454 448.868 289.801V308.128C448.886 308.67 448.721 309.202 448.399 309.637C448.076 310.073 447.616 310.387 447.092 310.527H446.397C445.901 310.527 445.421 310.361 445.03 310.057C444.639 309.753 444.36 309.328 444.238 308.848V301.172H434.113V307.769C434.207 308.328 434.099 308.902 433.809 309.39C433.519 309.877 433.066 310.246 432.53 310.431H431.642C430.515 310.431 429.747 309.76 429.387 308.416V289.226C429.416 288.904 429.51 288.592 429.662 288.308C429.815 288.023 430.023 287.773 430.275 287.571C430.683 287.367 431.141 287.284 431.594 287.331Z" fill="black"/>
<path d="M461.007 287.331H468.78C469.788 287.331 470.507 287.93 470.939 289.154V289.658C470.958 290.199 470.792 290.731 470.47 291.167C470.148 291.602 469.687 291.916 469.164 292.056H463.382V296.854H468.732C469.74 296.854 470.459 297.478 470.891 298.701V299.205C470.91 299.746 470.744 300.278 470.422 300.714C470.1 301.149 469.639 301.463 469.116 301.604H463.334V306.401H468.684C469.692 306.401 470.411 307.001 470.843 308.224V308.752C470.862 309.294 470.696 309.826 470.374 310.261C470.052 310.697 469.591 311.01 469.068 311.151H461.055C460.48 311.158 459.921 310.959 459.481 310.589C459.041 310.219 458.748 309.704 458.656 309.136V289.945C458.656 288.818 459.352 288.074 460.719 287.69L461.007 287.331Z" fill="black"/>
<path d="M517.553 287.331C518.94 287.383 520.299 287.735 521.536 288.362C521.861 288.59 522.127 288.892 522.315 289.242C522.502 289.591 522.605 289.98 522.615 290.377C522.608 290.882 522.442 291.372 522.141 291.776C521.839 292.181 521.418 292.481 520.936 292.632H520.192C519.55 292.543 518.921 292.374 518.321 292.128C517.992 292.04 517.654 291.992 517.313 291.984C516.844 291.936 516.369 292.02 515.945 292.228C515.521 292.436 515.164 292.759 514.914 293.16C514.765 293.534 514.684 293.932 514.674 294.335C514.642 294.554 514.675 294.778 514.769 294.978C514.863 295.179 515.013 295.347 515.202 295.463C516.873 296.271 518.606 296.945 520.384 297.478C521.187 297.77 521.91 298.247 522.495 298.869C523.272 299.706 523.796 300.745 524.007 301.867C524.138 302.5 524.219 303.141 524.247 303.787C524.211 304.885 523.929 305.961 523.422 306.937C522.916 307.912 522.198 308.762 521.32 309.424C520.116 310.155 518.745 310.568 517.337 310.623H515.946C513.921 310.734 511.927 310.084 510.356 308.8C509.986 308.353 509.775 307.797 509.756 307.217C509.763 306.712 509.93 306.223 510.231 305.818C510.533 305.413 510.954 305.113 511.436 304.962H512.203C512.796 305.006 513.363 305.223 513.835 305.586C514.531 305.883 515.285 306.023 516.042 305.993H516.498C517.913 305.993 518.897 305.61 519.185 304.818C519.185 304.818 519.377 304.506 519.497 303.835C519.497 302.755 519.185 302.083 518.513 301.867C516.571 301.281 514.678 300.543 512.851 299.661C511.542 298.895 510.572 297.66 510.14 296.206C510.006 295.559 509.942 294.9 509.948 294.239C509.98 292.794 510.403 291.385 511.172 290.161C511.941 289.225 512.919 288.481 514.027 287.989C515.135 287.498 516.343 287.272 517.553 287.331Z" fill="black"/>
<path d="M543.272 287.331H543.943C544.553 287.356 545.149 287.521 545.685 287.812C546.221 288.103 546.684 288.513 547.038 289.01C547.767 290.422 548.361 291.9 548.813 293.424C552.052 302.011 553.876 306.905 554.235 308.08V308.56C554.201 309.05 554.016 309.517 553.707 309.899C553.399 310.281 552.98 310.559 552.508 310.695H552.004C551.443 310.706 550.895 310.521 550.457 310.17C550.019 309.819 549.717 309.326 549.605 308.776C549.339 307.914 549.01 307.072 548.621 306.257H539.025C538.704 307.62 538.152 308.918 537.394 310.095C536.963 310.476 536.409 310.689 535.834 310.695H535.642C535.102 310.695 534.58 310.502 534.171 310.15C533.761 309.798 533.492 309.31 533.411 308.776V308.176C533.768 306.73 534.249 305.317 534.851 303.954C538.241 294.551 540.041 289.665 540.249 289.298C540.553 288.747 540.988 288.28 541.515 287.937C542.042 287.594 542.645 287.386 543.272 287.331ZM543.607 293.184L540.561 301.58H546.798L543.703 293.184H543.607Z" fill="black"/>
<path d="M566.423 287.331C566.876 287.365 567.315 287.509 567.699 287.752C568.084 287.994 568.404 288.327 568.63 288.722L580.361 302.083V289.849C580.343 289.308 580.508 288.776 580.83 288.34C581.153 287.905 581.613 287.591 582.137 287.451H582.976C583.472 287.451 583.952 287.616 584.343 287.921C584.734 288.225 585.013 288.65 585.135 289.13V308.536C585.145 309.104 584.952 309.657 584.592 310.096C584.232 310.536 583.727 310.833 583.168 310.935H582.688C582.25 310.912 581.824 310.782 581.448 310.556C581.071 310.33 580.756 310.016 580.529 309.64L568.726 296.182V308.704C568.7 309.277 568.47 309.821 568.078 310.239C567.873 310.46 567.624 310.636 567.347 310.755C567.07 310.875 566.772 310.936 566.471 310.935C565.93 310.984 565.389 310.837 564.949 310.519C564.508 310.202 564.196 309.736 564.071 309.208V290.137C564.038 289.626 564.168 289.117 564.445 288.685C564.721 288.254 565.128 287.922 565.607 287.738C565.839 287.535 566.12 287.394 566.423 287.331Z" fill="black"/>
<path d="M597.131 287.331H603.32C606.02 287.348 608.605 288.425 610.518 290.329C611.726 291.554 612.637 293.039 613.181 294.671C613.631 295.91 613.874 297.215 613.9 298.533V299.565C613.9 302.16 613.059 304.685 611.501 306.761C610.552 308.027 609.32 309.055 607.904 309.763C606.489 310.471 604.927 310.839 603.344 310.839H597.347C596.838 310.842 596.343 310.674 595.942 310.36C595.542 310.046 595.259 309.607 595.14 309.112V289.945C595.122 289.401 595.291 288.866 595.618 288.43C595.945 287.994 596.411 287.683 596.939 287.547L597.131 287.331ZM601.593 292.128H599.77V306.089H602.961C604.237 306.113 605.487 305.725 606.524 304.981C607.561 304.238 608.331 303.179 608.718 301.963C609.007 301.138 609.16 300.271 609.174 299.397V298.725C609.206 296.977 608.61 295.275 607.495 293.927C606.917 293.274 606.203 292.755 605.403 292.407C604.603 292.059 603.737 291.89 602.865 291.912L601.593 292.128Z" fill="black"/>
<path d="M631.366 287.331C632.752 287.383 634.111 287.734 635.348 288.362C635.673 288.59 635.94 288.892 636.127 289.241C636.315 289.591 636.418 289.98 636.428 290.377C636.421 290.882 636.255 291.371 635.953 291.776C635.652 292.181 635.23 292.481 634.748 292.632H634.005C633.362 292.543 632.734 292.374 632.133 292.128C631.812 292.042 631.482 291.993 631.15 291.984C630.68 291.941 630.208 292.028 629.785 292.235C629.362 292.443 629.004 292.763 628.751 293.16C628.602 293.534 628.521 293.932 628.511 294.335C628.478 294.554 628.511 294.778 628.605 294.978C628.699 295.179 628.85 295.347 629.039 295.463C630.717 296.274 632.458 296.948 634.245 297.478C635.04 297.771 635.755 298.248 636.332 298.869C637.109 299.706 637.633 300.745 637.843 301.867C637.975 302.5 638.055 303.141 638.083 303.787C638.046 304.882 637.767 305.956 637.265 306.931C636.763 307.906 636.051 308.757 635.18 309.424C633.974 310.149 632.605 310.562 631.198 310.623H629.782C627.764 310.735 625.778 310.084 624.216 308.8C623.822 308.366 623.6 307.803 623.593 307.217C623.6 306.712 623.766 306.222 624.067 305.818C624.369 305.413 624.79 305.113 625.272 304.962H626.16C626.753 305.006 627.32 305.223 627.791 305.586C628.488 305.881 629.242 306.02 629.998 305.993H630.454C631.87 305.993 632.853 305.61 633.141 304.818C633.141 304.818 633.333 304.506 633.453 303.835C633.453 302.755 633.141 302.083 632.469 301.867C630.527 301.281 628.634 300.543 626.807 299.661C625.504 298.888 624.537 297.656 624.097 296.206C623.974 295.558 623.91 294.899 623.905 294.239C623.936 292.794 624.359 291.385 625.128 290.161C625.883 289.244 626.837 288.513 627.918 288.022C628.999 287.531 630.179 287.295 631.366 287.331Z" fill="black"/>
<path d="M679.179 287.331H679.347C679.85 287.351 680.333 287.528 680.729 287.838C681.125 288.148 681.414 288.575 681.554 289.058V306.185H687.048C687.505 306.221 687.942 306.387 688.308 306.663C688.674 306.94 688.952 307.315 689.111 307.745V308.632C689.085 309.133 688.901 309.614 688.587 310.005C688.273 310.397 687.844 310.68 687.36 310.815H679.251C678.71 310.834 678.178 310.668 677.742 310.346C677.306 310.024 676.993 309.563 676.852 309.04C676.808 308.665 676.808 308.287 676.852 307.913V290.257C676.852 288.866 677.284 288.002 678.124 287.642C678.431 287.425 678.803 287.315 679.179 287.331Z" fill="black"/>
<path d="M709.096 287.331H709.744C710.354 287.351 710.952 287.513 711.489 287.805C712.027 288.096 712.488 288.509 712.838 289.01C713.58 290.419 714.183 291.897 714.638 293.424C717.877 302.011 719.7 306.905 720.06 308.08V308.56C720.025 309.05 719.841 309.517 719.532 309.899C719.223 310.281 718.804 310.559 718.332 310.695H717.805C717.243 310.706 716.696 310.521 716.257 310.17C715.819 309.819 715.518 309.326 715.405 308.776C715.139 307.914 714.81 307.072 714.422 306.257H704.826C704.503 307.624 703.942 308.923 703.17 310.095C702.745 310.47 702.201 310.683 701.635 310.695H701.443C700.906 310.674 700.393 310.473 699.984 310.125C699.575 309.777 699.295 309.302 699.188 308.776V308.176C699.546 306.727 700.036 305.314 700.651 303.954C704.026 294.551 705.817 289.665 706.025 289.298C706.339 288.745 706.782 288.277 707.317 287.934C707.852 287.592 708.463 287.384 709.096 287.331ZM709.432 293.184L706.385 301.58H712.527L709.432 293.184Z" fill="black"/>
<path d="M729.008 287.331C730.424 287.331 731.263 288.41 731.407 290.617L733.015 298.581C734.838 292.224 735.87 288.842 736.085 288.41C736.289 288.1 736.562 287.84 736.882 287.653C737.203 287.466 737.562 287.355 737.933 287.331H738.293C739.564 287.331 740.38 288.338 740.692 290.377L743.091 298.533C743.399 297.505 743.623 296.455 743.762 295.391L745.154 288.674C745.344 288.285 745.637 287.954 746 287.717C746.363 287.481 746.784 287.347 747.217 287.331C747.716 287.304 748.21 287.446 748.618 287.733C749.027 288.02 749.328 288.436 749.472 288.914C749.544 289.157 749.592 289.406 749.616 289.658C749.44 290.761 748.145 297.31 745.73 309.304C745.553 309.711 745.266 310.061 744.902 310.316C744.538 310.57 744.11 310.718 743.667 310.743H743.715C743.229 310.728 742.761 310.557 742.38 310.254C742 309.951 741.727 309.534 741.603 309.064L738.317 298.005C737.97 298.825 737.705 299.677 737.525 300.548L734.766 309.592C734.564 309.925 734.283 310.204 733.949 310.405C733.614 310.606 733.236 310.722 732.847 310.743H732.511C731.503 310.743 730.807 310.143 730.352 308.92L726.561 289.729C726.545 289.181 726.717 288.645 727.049 288.208C727.381 287.772 727.852 287.462 728.384 287.331H729.008Z" fill="black"/>
<path d="M800.549 287.331H801.292C804.099 287.358 806.807 288.368 808.946 290.185C810.104 291.047 810.892 292.316 811.153 293.735C811.137 294.36 810.879 294.954 810.433 295.391C810.2 295.622 809.923 295.803 809.617 295.922C809.312 296.042 808.985 296.098 808.658 296.086C807.77 296.086 806.978 295.463 806.259 294.215C805.56 293.501 804.723 292.937 803.799 292.558C802.875 292.178 801.883 291.991 800.885 292.008C799.697 292.009 798.527 292.29 797.468 292.827C796.409 293.365 795.492 294.145 794.791 295.103C793.936 296.291 793.474 297.717 793.471 299.181C793.481 300.082 793.673 300.971 794.036 301.796C794.399 302.62 794.925 303.363 795.583 303.978C796.434 304.813 797.457 305.452 798.581 305.85C799.133 306.001 799.694 306.113 800.261 306.185H801.436C803.004 306.203 804.53 305.678 805.755 304.698C806.394 304.093 806.865 303.333 807.122 302.491H803.452C802.97 302.546 802.483 302.454 802.055 302.228C801.627 302.001 801.277 301.649 801.053 301.22C800.857 300.912 800.757 300.553 800.765 300.188V299.852C800.784 299.376 800.945 298.916 801.227 298.532C801.509 298.147 801.899 297.855 802.348 297.694C802.691 297.653 803.037 297.653 803.38 297.694H809.953C810.458 297.701 810.948 297.867 811.353 298.168C811.757 298.47 812.057 298.891 812.208 299.373C812.24 299.539 812.24 299.71 812.208 299.876V300.404C812.177 303.069 811.17 305.629 809.377 307.601C808.298 308.646 807.02 309.465 805.619 310.009C804.218 310.553 802.723 310.811 801.221 310.767H800.285C797.72 310.679 795.254 309.762 793.256 308.152C791.885 307.081 790.771 305.718 789.995 304.162C789.219 302.605 788.8 300.896 788.769 299.157C788.793 297.415 789.196 295.7 789.95 294.13C790.704 292.56 791.791 291.173 793.136 290.065C795.239 288.364 797.844 287.403 800.549 287.331Z" fill="black"/>
<path d="M824.612 287.331H829.122C830.157 287.33 831.181 287.543 832.131 287.955C833.08 288.368 833.934 288.972 834.64 289.729C835.785 291.061 836.392 292.772 836.343 294.527V294.839C836.395 296.229 836.018 297.601 835.262 298.768C834.507 299.936 833.41 300.842 832.121 301.364H831.833C834.544 305.034 835.959 307.049 836.151 307.409C836.282 307.703 836.347 308.022 836.343 308.344C836.362 308.886 836.196 309.418 835.874 309.853C835.551 310.289 835.091 310.603 834.568 310.743H833.8C832.912 310.743 832.073 310.071 831.281 308.68L826.867 302.635L826.675 302.467V308.416C826.671 308.853 826.549 309.28 826.321 309.652C826.092 310.024 825.767 310.326 825.379 310.527C825.089 310.672 824.768 310.746 824.444 310.743H824.204C823.735 310.741 823.279 310.592 822.9 310.316C822.521 310.041 822.239 309.653 822.093 309.208C821.989 308.874 821.941 308.526 821.949 308.176V289.801C821.924 289.272 822.076 288.75 822.38 288.316C822.684 287.882 823.122 287.561 823.628 287.403C823.949 287.32 824.282 287.296 824.612 287.331ZM826.675 292.128V297.334H828.738C829.31 297.403 829.89 297.287 830.391 297.002C830.892 296.717 831.288 296.278 831.521 295.75V294.671C831.521 292.968 830.441 292.128 828.258 292.128H826.675Z" fill="black"/>
<path d="M857.551 287.331H858.295C860.934 287.379 863.476 288.336 865.492 290.041C866.48 290.855 867.296 291.858 867.891 292.992C868.986 294.714 869.576 296.708 869.594 298.749V299.325C869.552 302.319 868.351 305.181 866.245 307.31C864.138 309.439 861.289 310.669 858.295 310.743H857.551C854.679 310.693 851.928 309.582 849.826 307.625C848.686 306.554 847.771 305.268 847.134 303.84C846.497 302.412 846.15 300.872 846.115 299.309C846.079 297.746 846.355 296.192 846.926 294.737C847.497 293.281 848.353 291.954 849.442 290.833C851.58 288.645 854.493 287.387 857.551 287.331ZM850.857 299.037C850.855 300.806 851.504 302.514 852.681 303.835C853.441 304.694 854.406 305.346 855.488 305.73C856.146 305.985 856.845 306.123 857.551 306.137H858.199C859.162 306.106 860.108 305.877 860.979 305.464C861.85 305.051 862.626 304.464 863.261 303.739C864.255 302.514 864.82 300.997 864.868 299.421V299.037C864.824 297.351 864.168 295.739 863.021 294.503C862.411 293.827 861.673 293.279 860.849 292.892C860.025 292.505 859.132 292.286 858.223 292.248H857.575C855.762 292.302 854.041 293.059 852.777 294.359L851.961 295.343C851.292 296.463 850.912 297.733 850.857 299.037Z" fill="black"/>
<path d="M881.614 287.331H881.853C882.322 287.332 882.778 287.482 883.157 287.757C883.536 288.033 883.819 288.421 883.965 288.866C884.068 289.2 884.117 289.548 884.109 289.897V302.083C884.103 302.814 884.302 303.532 884.684 304.155C885.066 304.778 885.614 305.282 886.268 305.61C886.745 305.853 887.268 305.992 887.803 306.017H888.187C888.856 306.007 889.511 305.819 890.084 305.474C890.657 305.128 891.128 304.637 891.45 304.05C891.79 303.485 891.972 302.839 891.978 302.179V290.185C891.912 289.647 892.015 289.102 892.273 288.624C892.531 288.147 892.931 287.762 893.417 287.523L894.281 287.379H894.449C895.576 287.379 896.32 288.026 896.704 289.346V302.251C896.668 304.445 895.793 306.541 894.257 308.107C892.721 309.674 890.643 310.592 888.451 310.671H887.659C885.831 310.597 884.075 309.942 882.645 308.8C881.608 307.961 880.777 306.896 880.215 305.686C879.654 304.476 879.377 303.153 879.406 301.82V289.586C879.417 289.151 879.545 288.727 879.777 288.359C880.009 287.992 880.337 287.694 880.726 287.499C881.003 287.369 881.308 287.311 881.614 287.331Z" fill="black"/>
<path d="M908.555 287.331H914.049C916.159 287.378 918.17 288.238 919.663 289.729C920.334 290.412 920.863 291.222 921.217 292.112C921.571 293.002 921.745 293.953 921.726 294.911V295.535C921.751 296.867 921.406 298.181 920.728 299.329C920.05 300.477 919.067 301.414 917.888 302.035C916.683 302.653 915.355 302.989 914.001 303.019H911.146V308.032C911.212 308.577 911.106 309.128 910.844 309.609C910.582 310.091 910.176 310.479 909.683 310.719H908.651C908.166 310.72 907.693 310.561 907.307 310.266C906.921 309.971 906.643 309.557 906.516 309.088V289.681C906.485 289.102 906.683 288.533 907.068 288.098C907.251 287.877 907.478 287.695 907.733 287.563C907.989 287.431 908.269 287.352 908.555 287.331ZM911.218 292.128V298.317H913.881C914.438 298.345 914.994 298.23 915.493 297.982C915.993 297.734 916.421 297.362 916.736 296.902C916.954 296.453 917.069 295.961 917.072 295.463V295.031C917.11 294.525 916.986 294.021 916.719 293.59C916.451 293.159 916.054 292.823 915.585 292.632C914.875 292.321 914.104 292.174 913.33 292.2L911.218 292.128Z" fill="black"/>
<path d="M937.536 309.712L935.137 313.694C934.978 314.03 934.727 314.315 934.413 314.514C934.098 314.714 933.734 314.82 933.362 314.821H933.242L932.522 314.581C932.249 314.408 932.021 314.172 931.858 313.892C931.695 313.612 931.602 313.297 931.586 312.974C931.602 312.558 931.726 312.152 931.946 311.799L934.345 307.793C934.504 307.456 934.755 307.171 935.07 306.972C935.384 306.772 935.748 306.666 936.121 306.665H936.385L936.816 306.809H936.984C937.285 306.962 937.536 307.195 937.71 307.484C937.884 307.772 937.973 308.104 937.968 308.44C937.99 308.632 937.99 308.825 937.968 309.016L937.536 309.712Z" fill="black"/>
<path d="M986.765 287.331H987.413C988.023 287.356 988.619 287.521 989.155 287.812C989.691 288.103 990.154 288.513 990.508 289.01C991.248 290.417 991.843 291.896 992.283 293.424C995.546 302.011 997.345 306.905 997.729 308.08V308.56C997.694 309.05 997.51 309.517 997.201 309.899C996.892 310.281 996.474 310.559 996.002 310.695H995.474C994.913 310.706 994.365 310.521 993.927 310.17C993.489 309.819 993.187 309.326 993.075 308.776C992.795 307.919 992.467 307.078 992.091 306.257H982.375C982.066 307.624 981.513 308.924 980.744 310.095C980.319 310.47 979.775 310.683 979.208 310.695H979.016C978.48 310.674 977.966 310.473 977.557 310.125C977.148 309.777 976.868 309.302 976.761 308.776V308.176C977.118 306.73 977.599 305.317 978.201 303.954C981.591 294.551 983.391 289.665 983.599 289.298C983.921 288.732 984.379 288.256 984.932 287.913C985.485 287.569 986.115 287.369 986.765 287.331ZM987.101 293.184L984.054 301.58H990.268L987.173 293.184H987.101Z" fill="black"/>
<path d="M1009.56 287.331H1015.15C1017.26 287.378 1019.27 288.238 1020.76 289.729C1021.43 290.412 1021.96 291.222 1022.31 292.112C1022.67 293.002 1022.84 293.953 1022.82 294.911V295.535C1022.85 296.867 1022.5 298.181 1021.83 299.329C1021.15 300.477 1020.16 301.414 1018.98 302.035C1017.78 302.653 1016.45 302.989 1015.1 303.019H1012.24V308.032C1012.31 308.577 1012.2 309.128 1011.94 309.609C1011.68 310.091 1011.27 310.479 1010.78 310.719H1009.75C1009.26 310.717 1008.79 310.557 1008.4 310.263C1008.01 309.969 1007.72 309.557 1007.59 309.088V289.681C1007.56 289.102 1007.76 288.533 1008.14 288.098C1008.49 287.667 1009 287.392 1009.56 287.331ZM1012.24 292.128V298.317H1014.81C1015.37 298.345 1015.92 298.23 1016.42 297.982C1016.92 297.734 1017.35 297.362 1017.67 296.902C1017.88 296.453 1018 295.961 1018 295.463V295.031C1018.04 294.522 1017.91 294.016 1017.64 293.584C1017.37 293.153 1016.96 292.819 1016.49 292.632C1015.79 292.321 1015.03 292.173 1014.26 292.2L1012.24 292.128Z" fill="black"/>
<path d="M1034.89 287.331H1035.08C1035.59 287.351 1036.07 287.529 1036.46 287.838C1036.86 288.148 1037.15 288.575 1037.29 289.058V306.185H1042.76C1043.22 306.221 1043.65 306.387 1044.02 306.663C1044.39 306.94 1044.66 307.315 1044.82 307.745V308.632C1044.82 309.137 1044.65 309.626 1044.34 310.022C1044.02 310.418 1043.59 310.697 1043.1 310.815H1034.99C1034.45 310.834 1033.91 310.668 1033.48 310.346C1033.04 310.024 1032.73 309.563 1032.59 309.04C1032.54 308.665 1032.54 308.287 1032.59 307.913V290.257C1032.59 288.866 1033 288.002 1033.84 287.643C1034.15 287.431 1034.51 287.322 1034.89 287.331Z" fill="black"/>
<path d="M1062.79 287.331H1063.44C1065.1 287.331 1066.75 287.717 1068.24 288.458C1068.58 288.682 1068.86 288.989 1069.04 289.35C1069.23 289.711 1069.33 290.114 1069.32 290.521C1069.3 291.01 1069.13 291.482 1068.83 291.872C1068.54 292.262 1068.13 292.553 1067.66 292.704H1066.92C1066.15 292.582 1065.39 292.381 1064.66 292.104C1064.28 292.013 1063.88 291.965 1063.49 291.96H1062.79C1061.84 291.997 1060.9 292.229 1060.04 292.641C1059.17 293.054 1058.41 293.638 1057.78 294.359C1056.68 295.638 1056.07 297.259 1056.05 298.941C1056.06 300.726 1056.74 302.441 1057.97 303.739C1058.58 304.405 1059.32 304.943 1060.15 305.322C1060.97 305.701 1061.86 305.913 1062.77 305.945H1063.42C1064.43 305.876 1065.43 305.641 1066.37 305.25H1066.99C1067.45 305.271 1067.89 305.422 1068.26 305.685C1068.64 305.949 1068.93 306.314 1069.1 306.737L1069.25 307.601C1069.25 309.112 1067.97 309.999 1065.43 310.503C1064.77 310.665 1064.09 310.738 1063.42 310.719H1062.79C1059.74 310.658 1056.84 309.42 1054.68 307.265C1053.06 305.637 1051.96 303.568 1051.51 301.318C1051.06 299.067 1051.27 296.732 1052.14 294.605C1053 292.478 1054.47 290.652 1056.37 289.354C1058.26 288.057 1060.5 287.345 1062.79 287.307V287.331Z" fill="black"/>
</svg>
